<svg width="34" height="27" viewBox="0 0 34 27" fill="none" xmlns="http://www.w3.org/2000/svg">
<path fill-rule="evenodd" clip-rule="evenodd" d="M30.3334 20.8333C30.3334 19.4526 29.2141 18.3333 27.8334 18.3333L9.50008 18.3333C4.43747 18.3333 0.333412 14.2293 0.333412 9.16666C0.333412 4.10405 4.43747 -1.47633e-06 9.50008 -1.05636e-06L12.0001 -8.47739e-07L12.0001 3.33333L9.50008 3.33333C6.27842 3.33333 3.66675 5.945 3.66675 9.16666C3.66675 12.3883 6.27842 15 9.50008 15L27.8334 15C31.0551 15 33.6667 17.6117 33.6667 20.8333C33.6667 24.055 31.0551 26.6667 27.8334 26.6667L2.00008 26.6667C1.0796 26.6667 0.333411 25.9205 0.333411 25C0.333411 24.0795 1.0796 23.3333 2.00008 23.3333L27.8334 23.3333C29.2141 23.3333 30.3334 22.214 30.3334 20.8333Z" fill="#9757D7"/>
</svg>
