<svg width="283" height="40" viewBox="0 0 283 40" fill="none" xmlns="http://www.w3.org/2000/svg">
<path fill-rule="evenodd" clip-rule="evenodd" d="M15.0001 13.3333H5.00008C4.07961 13.3333 3.33341 14.0795 3.33341 15V25C3.33341 25.9205 4.07961 26.6666 5.00008 26.6666H15.0001C15.9206 26.6666 16.6667 25.9205 16.6667 25V15C16.6667 14.0795 15.9206 13.3333 15.0001 13.3333ZM5.00008 11.6666C3.15913 11.6666 1.66675 13.159 1.66675 15V25C1.66675 26.8409 3.15913 28.3333 5.00008 28.3333H15.0001C16.841 28.3333 18.3334 26.8409 18.3334 25V15C18.3334 13.159 16.841 11.6666 15.0001 11.6666H5.00008Z" fill="#777E91"/>
<path d="M5.83333 16.6667C6.29357 16.6667 6.66667 16.2936 6.66667 15.8333C6.66667 15.3731 6.29357 15 5.83333 15C5.3731 15 5 15.3731 5 15.8333C5 16.2936 5.3731 16.6667 5.83333 16.6667Z" fill="#777E91"/>
<path d="M5.83333 18.3334C5.3731 18.3334 5 18.7065 5 19.1667V24.1667C5 24.627 5.3731 25 5.83333 25C6.29357 25 6.66667 24.627 6.66667 24.1667V19.1667C6.66667 18.7065 6.29357 18.3334 5.83333 18.3334Z" fill="#777E91"/>
<path d="M11.6666 20C10.7461 20 9.99992 20.7462 9.99992 21.6667V24.1667C9.99992 24.627 9.62684 25 9.16659 25C8.70634 25 8.33325 24.627 8.33325 24.1667V19.1667C8.33325 18.7065 8.70634 18.3334 9.16659 18.3334C9.50442 18.3334 9.79525 18.5344 9.92609 18.8233C10.4327 18.5125 11.0288 18.3334 11.6666 18.3334C13.5075 18.3334 14.9999 19.8258 14.9999 21.6667V24.1667C14.9999 24.627 14.6268 25 14.1666 25C13.7063 25 13.3333 24.627 13.3333 24.1667V21.6667C13.3333 20.7462 12.5871 20 11.6666 20Z" fill="#777E91"/>
<path fill-rule="evenodd" clip-rule="evenodd" d="M57.3333 25.6911C58.3043 25.3479 59 24.4218 59 23.3333V17.5H49V23.3333C49 24.4218 49.6957 25.3479 50.6667 25.6911V27.5C50.6667 27.9603 51.0398 28.3333 51.5 28.3333C51.9602 28.3333 52.3333 27.9603 52.3333 27.5V25.8333H55.6667V27.5C55.6667 27.9603 56.0397 28.3333 56.5 28.3333C56.9602 28.3333 57.3333 27.9603 57.3333 27.5V25.6911ZM57.3333 19.1667H50.6667V23.3333C50.6667 23.7936 51.0398 24.1667 51.5 24.1667H56.5C56.9602 24.1667 57.3333 23.7936 57.3333 23.3333V19.1667Z" fill="#777E91"/>
<path d="M46.5001 17.5C46.0398 17.5 45.6667 17.8731 45.6667 18.3333V21.6667C45.6667 22.1269 46.0398 22.5 46.5001 22.5C46.9603 22.5 47.3334 22.1269 47.3334 21.6667V18.3333C47.3334 17.8731 46.9603 17.5 46.5001 17.5Z" fill="#777E91"/>
<path d="M61.5001 17.5C61.0398 17.5 60.6667 17.8731 60.6667 18.3333V21.6667C60.6667 22.1269 61.0398 22.5 61.5001 22.5C61.9603 22.5 62.3334 22.1269 62.3334 21.6667V18.3333C62.3334 17.8731 61.9603 17.5 61.5001 17.5Z" fill="#777E91"/>
<path fill-rule="evenodd" clip-rule="evenodd" d="M50.294 11.7548C50.7056 11.549 51.2062 11.7158 51.412 12.1275L51.8424 12.9882C52.4956 12.6752 53.2273 12.5 54 12.5C54.7727 12.5 55.5044 12.6752 56.1577 12.9882L56.588 12.1275C56.7938 11.7158 57.2944 11.549 57.706 11.7548C58.1177 11.9606 58.2845 12.4612 58.0788 12.8728L57.5337 13.9627C58.4397 14.8676 59 16.1184 59 17.5V19.1666H49V17.5C49 16.1184 49.5604 14.8676 50.4662 13.9627L49.9213 12.8728C49.7155 12.4612 49.8823 11.9606 50.294 11.7548ZM55.9791 14.8174C55.9921 14.8278 56.0054 14.8379 56.0192 14.8476C56.8179 15.4565 57.3333 16.4181 57.3333 17.5H50.6667C50.6667 16.4181 51.1821 15.4565 51.9808 14.8476C51.9945 14.8379 52.0079 14.8278 52.021 14.8174C52.5744 14.4084 53.259 14.1666 54 14.1666C54.741 14.1666 55.4256 14.4084 55.9791 14.8174Z" fill="#777E91"/>
<path fill-rule="evenodd" clip-rule="evenodd" d="M99.0947 27.8105C98.6903 27.643 98.3452 27.5 98 27.5C97.6548 27.5 97.3097 27.643 96.9053 27.8105C96.3333 28.0474 95.643 28.3333 94.6667 28.3333C92.1667 28.3333 90.5 24.1665 90.5 20.8333C90.5 17.5001 91.3333 14.1666 94.6667 14.1666C95.5598 14.1666 96.094 14.406 96.5898 14.6281C97.0192 14.8205 97.4198 15 98 15C98.5802 15 98.9807 14.8205 99.4102 14.6281C99.906 14.406 100.44 14.1666 101.333 14.1666C103.182 14.1666 104.261 15.1917 104.857 16.6734L104.861 16.6852C104.945 16.8939 105.018 17.1115 105.083 17.3366C105.156 17.5895 105.218 17.8517 105.27 18.1211C105.292 18.2334 105.198 18.3333 105.083 18.3333C103.933 18.3333 103 19.266 103 20.4166C103 21.5672 103.933 22.5 105.083 22.5C105.229 22.5 105.354 22.6245 105.329 22.7686C105.264 23.1436 105.182 23.5173 105.083 23.8835C105.058 23.9775 105.031 24.071 105.004 24.164L105.003 24.1658C104.333 26.4293 103.023 28.3333 101.333 28.3333C100.357 28.3333 99.6667 28.0474 99.0947 27.8105ZM98 25.8333C97.3095 25.8333 96.6796 26.0978 96.3394 26.2405C95.7993 26.4673 95.2609 26.6666 94.6667 26.6666C94.4167 26.6666 93.7987 26.4122 93.1365 25.0879C92.5314 23.8777 92.1667 22.2605 92.1667 20.8333C92.1667 19.2518 92.3732 17.8971 92.8241 16.9954C93.0377 16.5681 93.2799 16.2956 93.5339 16.1263C93.7774 15.9639 94.125 15.8333 94.6667 15.8333C94.9555 15.8333 95.1586 15.8707 95.3202 15.9168C95.4973 15.9673 95.6534 16.0348 95.9084 16.1491L95.9499 16.1677C96.3847 16.363 97.0609 16.6666 98 16.6666C98.9391 16.6666 99.6153 16.3629 100.05 16.1677L100.092 16.1491C100.347 16.0348 100.503 15.9673 100.68 15.9168C100.841 15.8707 101.044 15.8333 101.333 15.8333C101.929 15.8333 102.295 15.9906 102.55 16.1866C102.8 16.3783 103.04 16.6827 103.247 17.1461C102.105 17.7888 101.333 19.0126 101.333 20.4166C101.333 21.8764 102.167 23.1413 103.385 23.7609C103.092 24.7232 102.691 25.5182 102.262 26.0415C101.819 26.5816 101.497 26.6666 101.333 26.6666C100.739 26.6666 100.201 26.4673 99.6606 26.2405C99.3204 26.0978 98.6905 25.8333 98 25.8333Z" fill="#777E91"/>
<path d="M98 13.125C98 11.3991 99.3991 10 101.125 10C101.24 10 101.333 10.0933 101.333 10.2083C101.333 11.9342 99.9343 13.3333 98.2083 13.3333C98.0933 13.3333 98 13.2401 98 13.125Z" fill="#777E91"/>
<path d="M193.56 25.1709C196.308 25.1709 197.935 23.5439 197.935 20.8574V19.7227H193.669V21.2607H195.925L195.918 21.4043C195.863 22.6211 194.94 23.4209 193.594 23.4209C191.953 23.4209 190.914 22.1562 190.914 20.0166V20.0098C190.914 17.918 191.892 16.7148 193.519 16.7148C194.633 16.7148 195.419 17.2686 195.747 18.2256L195.774 18.2939H197.846L197.825 18.1982C197.497 16.3457 195.884 14.9648 193.512 14.9648C190.62 14.9648 188.809 16.8721 188.809 20.0303V20.0371C188.809 23.25 190.613 25.1709 193.56 25.1709ZM202.467 25.1504C204.559 25.1504 205.57 23.9131 205.796 22.833L205.816 22.7578H203.984L203.971 22.7988C203.827 23.209 203.328 23.6602 202.508 23.6602C201.489 23.6602 200.854 22.9766 200.833 21.8076H205.878V21.1924C205.878 18.9775 204.531 17.5215 202.385 17.5215C200.238 17.5215 198.864 19.0117 198.864 21.3428V21.3496C198.864 23.6943 200.225 25.1504 202.467 25.1504ZM202.419 19.0117C203.246 19.0117 203.841 19.5381 203.964 20.5498H200.854C200.983 19.5586 201.599 19.0117 202.419 19.0117ZM209.822 25.1504C210.239 25.1504 210.561 25.1094 210.786 25.0752V23.6123C210.663 23.626 210.533 23.6465 210.355 23.6465C209.754 23.6465 209.446 23.4141 209.446 22.7305V19.1758H210.786V17.6719H209.446V15.8809H207.43V17.6719H206.411V19.1758H207.43V22.9492C207.43 24.5215 208.195 25.1504 209.822 25.1504ZM215.195 25H217.191V19.1758H218.6V17.6719H217.144V17.1592C217.144 16.6328 217.438 16.3525 218.101 16.3525C218.285 16.3525 218.477 16.3594 218.613 16.3867V15.0674C218.381 15.0195 217.978 14.9854 217.608 14.9854C215.879 14.9854 215.195 15.6484 215.195 17.084V17.6719H214.197V19.1758H215.195V25ZM219.652 25H221.648V20.8984C221.648 19.832 222.223 19.2441 223.207 19.2441C223.494 19.2441 223.768 19.2852 223.932 19.3535V17.5967C223.781 17.5557 223.576 17.5215 223.357 17.5215C222.503 17.5215 221.908 18.0479 221.689 18.9502H221.648V17.6719H219.652V25ZM227.842 25.1504C229.934 25.1504 230.945 23.9131 231.171 22.833L231.191 22.7578H229.359L229.346 22.7988C229.202 23.209 228.703 23.6602 227.883 23.6602C226.864 23.6602 226.229 22.9766 226.208 21.8076H231.253V21.1924C231.253 18.9775 229.906 17.5215 227.76 17.5215C225.613 17.5215 224.239 19.0117 224.239 21.3428V21.3496C224.239 23.6943 225.6 25.1504 227.842 25.1504ZM227.794 19.0117C228.621 19.0117 229.216 19.5381 229.339 20.5498H226.229C226.358 19.5586 226.974 19.0117 227.794 19.0117ZM235.621 25.1504C237.713 25.1504 238.725 23.9131 238.95 22.833L238.971 22.7578H237.139L237.125 22.7988C236.981 23.209 236.482 23.6602 235.662 23.6602C234.644 23.6602 234.008 22.9766 233.987 21.8076H239.032V21.1924C239.032 18.9775 237.686 17.5215 235.539 17.5215C233.393 17.5215 232.019 19.0117 232.019 21.3428V21.3496C232.019 23.6943 233.379 25.1504 235.621 25.1504ZM235.573 19.0117C236.4 19.0117 236.995 19.5381 237.118 20.5498H234.008C234.138 19.5586 234.753 19.0117 235.573 19.0117ZM245.752 25.1504C246.169 25.1504 246.49 25.1094 246.716 25.0752V23.6123C246.593 23.626 246.463 23.6465 246.285 23.6465C245.684 23.6465 245.376 23.4141 245.376 22.7305V19.1758H246.716V17.6719H245.376V15.8809H243.359V17.6719H242.341V19.1758H243.359V22.9492C243.359 24.5215 244.125 25.1504 245.752 25.1504ZM247.816 25H249.812V20.8984C249.812 19.832 250.387 19.2441 251.371 19.2441C251.658 19.2441 251.932 19.2852 252.096 19.3535V17.5967C251.945 17.5557 251.74 17.5215 251.521 17.5215C250.667 17.5215 250.072 18.0479 249.854 18.9502H249.812V17.6719H247.816V25ZM253.955 16.7285C254.557 16.7285 255.021 16.2568 255.021 15.6895C255.021 15.1221 254.557 14.6504 253.955 14.6504C253.354 14.6504 252.889 15.1221 252.889 15.6895C252.889 16.2568 253.354 16.7285 253.955 16.7285ZM252.957 25H254.953V17.6719H252.957V25ZM258.474 25.1162C259.438 25.1162 260.217 24.6582 260.634 23.9062H260.675V25H262.671V19.9756C262.671 18.499 261.447 17.5215 259.554 17.5215C257.619 17.5215 256.457 18.4922 256.348 19.8457L256.341 19.9277H258.166L258.18 19.8662C258.275 19.3945 258.727 19.0459 259.472 19.0459C260.251 19.0459 260.675 19.4492 260.675 20.0986V20.5498L258.863 20.6592C257.045 20.7754 256.013 21.5547 256.013 22.8877V22.9014C256.013 24.1934 257.004 25.1162 258.474 25.1162ZM257.988 22.7988V22.7852C257.988 22.2656 258.392 21.9375 259.164 21.8896L260.675 21.7939V22.3203C260.675 23.0859 260.019 23.6602 259.123 23.6602C258.433 23.6602 257.988 23.3389 257.988 22.7988ZM264.011 25H266.007V15.1357H264.011V25Z" fill="#23262F"/>
<path d="M192 2H263V-2H192V2ZM263 38H192V42H263V38ZM192 38C182.059 38 174 29.9411 174 20H170C170 32.1503 179.85 42 192 42V38ZM281 20C281 29.9411 272.941 38 263 38V42C275.15 42 285 32.1503 285 20H281ZM263 2C272.941 2 281 10.0589 281 20H285C285 7.84974 275.15 -2 263 -2V2ZM192 -2C179.85 -2 170 7.84974 170 20H174C174 10.0589 182.059 2 192 2V-2Z" fill="#E6E8EC"/>
</svg>
