<svg width="64" height="64" viewBox="0 0 64 64" fill="none" xmlns="http://www.w3.org/2000/svg">
<path fill-rule="evenodd" clip-rule="evenodd" d="M35.7348 34.0909C36.1094 34.4968 36.0841 35.1294 35.6783 35.504L32.1783 38.7348C31.7953 39.0884 31.2048 39.0884 30.8218 38.7348L27.3217 35.504C26.9159 35.1294 26.8906 34.4968 27.2652 34.091C27.6398 33.6851 28.2724 33.6598 28.6783 34.0344L30.5 35.716L30.5 26C30.5 25.4477 30.9477 25 31.5 25C32.0523 25 32.5 25.4477 32.5 26L32.5 35.716L34.3217 34.0344C34.7275 33.6598 35.3602 33.6851 35.7348 34.0909Z" fill="#777E91"/>
<path d="M32 62C15.4315 62 2 48.5685 2 32H-2C-2 50.7777 13.2223 66 32 66V62ZM62 32C62 48.5685 48.5685 62 32 62V66C50.7777 66 66 50.7777 66 32H62ZM32 2C48.5685 2 62 15.4315 62 32H66C66 13.2223 50.7777 -2 32 -2V2ZM32 -2C13.2223 -2 -2 13.2223 -2 32H2C2 15.4315 15.4315 2 32 2V-2Z" fill="#E6E8EC"/>
</svg>
